<svg xmlns="http://www.w3.org/2000/svg" width="88" height="92" viewBox="0 0 88 92">
    <path fill="#225CFF" fill-rule="nonzero" d="M2.998 29.596c-6.739 17.82-1.883 37.99 12.207 50.702 14.09 12.71 34.49 15.325 51.28 6.572l21.471-10.347V65.978l-.349-.749-.85.419L61.589 77.69c-16.63 8.592-37.012 2.588-46.454-13.682l11.842-5.702c6.25 9.47 18.53 12.723 28.581 7.573l24.078-11.107L88 50.876V29.18C81.147 11.572 64.312-.006 45.57 0 26.673.001 9.737 11.775 2.998 29.596zm50.31 19.945l-6.131 2.745-13.704-9.738 27.95-12.33c-6.776-7.557-17.79-9.527-26.74-4.78-8.951 4.747-13.555 14.998-11.177 24.887L11.676 56c-5.663-17.788 3.458-36.93 20.795-43.64C49.808 5.65 69.34 13.704 77 30.72v8.158L53.308 49.54z"/>
</svg>
