<svg xmlns="http://www.w3.org/2000/svg" width="32" height="33" viewBox="0 0 32 33">
    <path fill="#46576E" fill-rule="nonzero" d="M1.09 10.616a16.452 16.452 0 0 0 4.44 18.186 16.627 16.627 0 0 0 18.646 2.358l7.808-3.712v-3.782l-.127-.268-.31.15-9.151 4.319c-6.047 3.082-13.459.929-16.892-4.908l4.306-2.045c2.273 3.397 6.738 4.564 10.393 2.716l8.756-3.983L32 18.249v-7.782C29.508 4.15 23.386-.003 16.57 0 9.7 0 3.54 4.224 1.09 10.616zm18.494 7.432l-2.244.995-5.016-3.53 10.23-4.47a8.118 8.118 0 0 0-9.787-1.733 8.046 8.046 0 0 0-4.091 9.022l-4.33 2.057C2.272 13.94 5.61 7.002 11.957 4.569c6.346-2.432 13.496.488 16.3 6.656v2.957l-8.673 3.866z"/>
</svg>
