<?xml version="1.0" encoding="UTF-8"?>
<svg width="16px" height="16px" viewBox="0 0 16 16" version="1.1" xmlns="http://www.w3.org/2000/svg" xmlns:xlink="http://www.w3.org/1999/xlink">
    <!-- Generator: Sketch 52.2 (67145) - http://www.bohemiancoding.com/sketch -->
    <title>Combined Shape</title>
    <desc>Created with Sketch.</desc>
    <g id="Storage" stroke="none" stroke-width="1" fill="none" fill-rule="evenodd">
        <g id="choose-plan" transform="translate(-918.000000, -149.000000)" stroke="#90A1B8" stroke-width="0.8">
            <path d="M933.487266,163.942936 L926.54433,157 L933.487266,150.057064 C933.637578,149.906752 933.637578,149.663047 933.487266,149.512734 C933.336953,149.362422 933.093248,149.362422 932.942936,149.512734 L926,156.45567 L919.057064,149.512734 C918.906752,149.362422 918.663047,149.362422 918.512734,149.512734 C918.362422,149.663047 918.362422,149.906752 918.512734,150.057064 L925.45567,157 L918.512734,163.942936 C918.362422,164.093248 918.362422,164.336953 918.512734,164.487266 C918.663047,164.637578 918.906752,164.637578 919.057064,164.487266 L926,157.54433 L932.942936,164.487266 C933.093248,164.637578 933.336953,164.637578 933.487266,164.487266 C933.637578,164.336953 933.637578,164.093248 933.487266,163.942936 Z" id="Combined-Shape"></path>
        </g>
    </g>
</svg>