<svg xmlns="http://www.w3.org/2000/svg" width="15" height="16" viewBox="0 0 15 16">
    <path fill="#90A1B8" fill-rule="nonzero" d="M3.2 6C2.537 6 2 6.512 2 7.143v5.714C2 13.488 2.537 14 3.2 14h3.6c.663 0 1.2-.512 1.2-1.143V7.143C8 6.512 7.463 6 6.8 6H3.2zm.133-2h3.334C8.507 4 10 5.465 10 7.273v5.454C10 14.535 8.508 16 6.667 16H3.333C1.493 16 0 14.535 0 12.727V7.273C0 5.465 1.492 4 3.333 4zm7.646 5H12a1 1 0 0 0 1-1V3a1 1 0 0 0-1-1H9a1 1 0 0 0-1 1H6a3 3 0 0 1 3-3h3a3 3 0 0 1 3 3v5a3 3 0 0 1-3 3h-1.021V9z"/>
</svg>
